mtllib ./handle.mtl
o handle

g handle
v 0 -0.0625 0.0625
v -1 0 0
v 0 0.0625 0.0625
v 0 -0.0625 -0.0625
v 0 0.0625 -0.0625

vt 0.003898643 -0.0625
vt -0.9980526 0
vt 0.003898643 0.0625
vt -0.003898643 -0.0625
vt 0.9980526 0
vt -0.003898643 0.0625
vt 0.0625 -0.0625
vt -0.0625 -0.0625
vt 0.0625 0.0625
vt -0.0625 0.0625

vn -0.06237829 0 0.9980526
vn -0.06237829 0 -0.9980526
vn 1 0 0
vn -0.06237829 0.9980526 0
vn -0.06237829 -0.9980526 0

usemtl handle
f 3/3/1 2/2/1 1/1/1
f 2/5/2 5/6/2 4/4/2
f 5/4/4 2/5/4 3/6/4
f 1/3/5 2/2/5 4/1/5
f 3/10/3 1/8/3 4/7/3
f 4/7/3 5/9/3 3/10/3

